<?xml version="1.0" encoding="UTF-8"?>
<svg xmlns="http://www.w3.org/2000/svg" viewBox="0 0 640 360" fill="none">
  <rect width="640" height="360" rx="10" fill="#0d1117"/>
  <rect x="0" y="0" width="640" height="36" rx="10" fill="#161b22"/>
  <circle cx="20" cy="18" r="5" fill="#ff5f57"/><circle cx="38" cy="18" r="5" fill="#febc2e"/><circle cx="56" cy="18" r="5" fill="#28c840"/>
  <text x="320" y="22" fill="#8b949e" font-size="11" text-anchor="middle">FitGPT - AI Fitness Coach</text>
  <rect x="20" y="52" width="160" height="288" rx="8" fill="#161b22"/>
  <rect x="36" y="68" width="100" height="8" rx="4" fill="#58a6ff"/>
  <rect x="36" y="88" width="128" height="24" rx="6" fill="#1c2128" stroke="#58a6ff"/>
  <rect x="36" y="122" width="128" height="24" rx="6" fill="#1c2128"/>
  <rect x="36" y="156" width="128" height="24" rx="6" fill="#1c2128"/>
  <rect x="200" y="52" width="420" height="288" rx="8" fill="#161b22"/>
  <rect x="220" y="72" width="200" height="36" rx="10" fill="#1c2128"/>
  <text x="232" y="94" fill="#8b949e" font-size="10">Plan my weekly workout</text>
  <rect x="420" y="72" width="180" height="36" rx="10" fill="#1c2128" stroke="#58a6ff"/>
  <text x="436" y="88" fill="#e6edf3" font-size="10">Based on your profile,</text>
  <text x="436" y="102" fill="#e6edf3" font-size="10">4-day split plan</text>
  <rect x="220" y="120" width="280" height="36" rx="10" fill="#1c2128"/>
  <text x="232" y="142" fill="#8b949e" font-size="10">Generate a veg diet plan</text>
  <rect x="420" y="120" width="180" height="52" rx="10" fill="#1c2128" stroke="#58a6ff"/>
  <text x="436" y="140" fill="#e6edf3" font-size="10">Day 1: Oats + fruits</text>
  <text x="436" y="156" fill="#e6edf3" font-size="10">Day 2: Dal + roti</text>
  <rect x="220" y="200" width="380" height="120" rx="8" fill="#0d1117" stroke="#30363d"/>
  <text x="236" y="224" fill="#58a6ff" font-size="11">Streaming response</text>
  <rect x="236" y="236" width="340" height="6" rx="3" fill="#30363d"/>
  <rect x="236" y="250" width="280" height="6" rx="3" fill="#30363d"/>
  <rect x="236" y="264" width="300" height="6" rx="3" fill="#30363d"/>
  <rect x="236" y="290" width="60" height="18" rx="4" fill="#58a6ff" opacity="0.3"/>
</svg>
