<?xml version="1.0" encoding="UTF-8"?>
<svg xmlns="http://www.w3.org/2000/svg" viewBox="0 0 720 320" fill="none">
  <rect width="720" height="320" rx="12" fill="#161b22"/>
  <text x="360" y="28" fill="#ffc107" font-family="monospace" font-size="13" text-anchor="middle">KaamFind - System Architecture</text>
  <rect x="40" y="50" width="100" height="44" rx="6" fill="#1c2128" stroke="#58a6ff"/>
  <text x="90" y="77" fill="#e6edf3" font-size="11" text-anchor="middle">Web Portal</text>
  <rect x="160" y="50" width="100" height="44" rx="6" fill="#1c2128" stroke="#58a6ff"/>
  <text x="210" y="77" fill="#e6edf3" font-size="11" text-anchor="middle">React Native</text>
  <rect x="280" y="50" width="100" height="44" rx="6" fill="#1c2128" stroke="#58a6ff"/>
  <text x="330" y="77" fill="#e6edf3" font-size="11" text-anchor="middle">Admin Console</text>
  <line x1="90" y1="94" x2="360" y2="130" stroke="#8b949e" stroke-width="1.5"/>
  <line x1="210" y1="94" x2="360" y2="130" stroke="#8b949e" stroke-width="1.5"/>
  <line x1="330" y1="94" x2="360" y2="130" stroke="#8b949e" stroke-width="1.5"/>
  <rect x="260" y="130" width="200" height="50" rx="6" fill="#1c2128" stroke="#ffc107" stroke-width="2"/>
  <text x="360" y="152" fill="#ffc107" font-size="12" text-anchor="middle">Laravel 11 API</text>
  <text x="360" y="168" fill="#8b949e" font-size="10" text-anchor="middle">JWT + Session | /api/v1</text>
  <line x1="360" y1="180" x2="360" y2="210" stroke="#8b949e"/>
  <rect x="120" y="210" width="110" height="40" rx="6" fill="#1c2128" stroke="#3fb950"/>
  <text x="175" y="234" fill="#e6edf3" font-size="10" text-anchor="middle">PostgreSQL</text>
  <rect x="250" y="210" width="110" height="40" rx="6" fill="#1c2128" stroke="#3fb950"/>
  <text x="305" y="234" fill="#e6edf3" font-size="10" text-anchor="middle">Queue Worker</text>
  <rect x="380" y="210" width="110" height="40" rx="6" fill="#1c2128" stroke="#3fb950"/>
  <text x="435" y="234" fill="#e6edf3" font-size="10" text-anchor="middle">AWS S3</text>
  <rect x="510" y="210" width="110" height="40" rx="6" fill="#1c2128" stroke="#3fb950"/>
  <text x="565" y="234" fill="#e6edf3" font-size="10" text-anchor="middle">OTP / SMS</text>
  <rect x="40" y="270" width="640" height="36" rx="6" fill="#0d1117" stroke="#30363d"/>
  <text x="360" y="292" fill="#8b949e" font-size="10" text-anchor="middle">4 roles | Spatie RBAC | Resume lifecycle | Application pipeline | Render + Supabase</text>
</svg>
