<?xml version="1.0" encoding="UTF-8"?>
<svg xmlns="http://www.w3.org/2000/svg" viewBox="0 0 640 360" fill="none">
  <rect width="640" height="360" rx="10" fill="#0d1117"/>
  <rect x="0" y="0" width="640" height="36" rx="10" fill="#161b22"/>
  <circle cx="20" cy="18" r="5" fill="#ff5f57"/><circle cx="38" cy="18" r="5" fill="#febc2e"/><circle cx="56" cy="18" r="5" fill="#28c840"/>
  <text x="320" y="22" fill="#8b949e" font-size="11" text-anchor="middle">KaamFind - Job Portal</text>
  <rect x="20" y="52" width="140" height="288" rx="8" fill="#161b22"/>
  <rect x="32" y="68" width="80" height="8" rx="4" fill="#ffc107" opacity="0.8"/>
  <rect x="32" y="88" width="116" height="6" rx="3" fill="#30363d"/>
  <rect x="32" y="104" width="100" height="6" rx="3" fill="#30363d"/>
  <rect x="32" y="130" width="116" height="28" rx="6" fill="#1c2128" stroke="#ffc107"/>
  <rect x="32" y="168" width="116" height="28" rx="6" fill="#1c2128"/>
  <rect x="32" y="206" width="116" height="28" rx="6" fill="#1c2128"/>
  <rect x="180" y="52" width="440" height="120" rx="8" fill="#161b22"/>
  <text x="200" y="78" fill="#ffc107" font-size="14" font-weight="bold">Find jobs near you</text>
  <rect x="200" y="92" width="200" height="28" rx="6" fill="#1c2128" stroke="#30363d"/>
  <rect x="200" y="130" width="80" height="24" rx="12" fill="#ffc107"/><text x="240" y="146" fill="#0d1117" font-size="10" text-anchor="middle">Driver</text>
  <rect x="290" y="130" width="80" height="24" rx="12" fill="#1c2128" stroke="#30363d"/><text x="330" y="146" fill="#8b949e" font-size="10" text-anchor="middle">Barber</text>
  <rect x="380" y="130" width="80" height="24" rx="12" fill="#1c2128" stroke="#30363d"/><text x="420" y="146" fill="#8b949e" font-size="10" text-anchor="middle">Guard</text>
  <rect x="180" y="188" width="210" height="152" rx="8" fill="#161b22" stroke="#30363d"/>
  <rect x="196" y="204" width="120" height="10" rx="4" fill="#e6edf3"/>
  <rect x="196" y="222" width="80" height="6" rx="3" fill="#8b949e"/>
  <rect x="196" y="244" width="178" height="6" rx="3" fill="#30363d"/>
  <rect x="196" y="258" width="150" height="6" rx="3" fill="#30363d"/>
  <rect x="196" y="280" width="70" height="22" rx="6" fill="#3fb950"/><text x="231" y="295" fill="#0d1117" font-size="9" text-anchor="middle">Apply</text>
  <rect x="410" y="188" width="210" height="152" rx="8" fill="#161b22" stroke="#30363d"/>
  <rect x="426" y="204" width="100" height="10" rx="4" fill="#e6edf3"/>
  <rect x="426" y="222" width="70" height="6" rx="3" fill="#8b949e"/>
  <rect x="426" y="244" width="178" height="6" rx="3" fill="#30363d"/>
  <rect x="426" y="258" width="130" height="6" rx="3" fill="#30363d"/>
  <rect x="426" y="280" width="70" height="22" rx="6" fill="#3fb950"/><text x="461" y="295" fill="#0d1117" font-size="9" text-anchor="middle">Apply</text>
</svg>
